<svg width="117" height="100" viewBox="0 0 117 100" fill="none" xmlns="http://www.w3.org/2000/svg">
<ellipse cx="24.7914" cy="3.30012" rx="2.5" ry="2.62469" transform="rotate(19.1717 24.7914 3.30012)" fill="#EB00FF"/>
<ellipse cx="10.4125" cy="44.6561" rx="2.5" ry="2.62469" transform="rotate(19.1717 10.4125 44.6561)" fill="#EB00FF"/>
<ellipse cx="60.1077" cy="15.5789" rx="2.5" ry="2.62469" transform="rotate(19.1717 60.1077 15.5789)" fill="#EB00FF"/>
<ellipse cx="45.7289" cy="56.9351" rx="2.5" ry="2.62469" transform="rotate(19.1717 45.7289 56.9351)" fill="#EB00FF"/>
<ellipse cx="95.4241" cy="27.858" rx="2.5" ry="2.62469" transform="rotate(19.1717 95.4241 27.858)" fill="#EB00FF"/>
<ellipse cx="81.0452" cy="69.2139" rx="2.5" ry="2.62469" transform="rotate(19.1717 81.0452 69.2139)" fill="#EB00FF"/>
<ellipse cx="17.602" cy="23.9781" rx="2.5" ry="2.62469" transform="rotate(19.1717 17.602 23.9781)" fill="#EB00FF"/>
<ellipse cx="3.22327" cy="65.3338" rx="2.5" ry="2.62469" transform="rotate(19.1717 3.22327 65.3338)" fill="#EB00FF"/>
<ellipse cx="52.9183" cy="36.2569" rx="2.5" ry="2.62469" transform="rotate(19.1717 52.9183 36.2569)" fill="#EB00FF"/>
<ellipse cx="38.5396" cy="77.6129" rx="2.5" ry="2.62469" transform="rotate(19.1717 38.5396 77.6129)" fill="#EB00FF"/>
<ellipse cx="88.2346" cy="48.536" rx="2.5" ry="2.62469" transform="rotate(19.1717 88.2346 48.536)" fill="#EB00FF"/>
<ellipse cx="73.8558" cy="89.8917" rx="2.5" ry="2.62469" transform="rotate(19.1717 73.8558 89.8917)" fill="#EB00FF"/>
<ellipse cx="42.4495" cy="9.43953" rx="2.5" ry="2.62469" transform="rotate(19.1717 42.4495 9.43953)" fill="#EB00FF"/>
<ellipse cx="28.0707" cy="50.7957" rx="2.5" ry="2.62469" transform="rotate(19.1717 28.0707 50.7957)" fill="#EB00FF"/>
<ellipse cx="77.7659" cy="21.7186" rx="2.5" ry="2.62469" transform="rotate(19.1717 77.7659 21.7186)" fill="#EB00FF"/>
<ellipse cx="63.3871" cy="63.0745" rx="2.5" ry="2.62469" transform="rotate(19.1717 63.3871 63.0745)" fill="#EB00FF"/>
<ellipse cx="113.082" cy="33.9974" rx="2.5" ry="2.62469" transform="rotate(19.1717 113.082 33.9974)" fill="#EB00FF"/>
<ellipse cx="98.7034" cy="75.3533" rx="2.5" ry="2.62469" transform="rotate(19.1717 98.7034 75.3533)" fill="#EB00FF"/>
<ellipse cx="35.2602" cy="30.1175" rx="2.5" ry="2.62469" transform="rotate(19.1717 35.2602 30.1175)" fill="#EB00FF"/>
<ellipse cx="20.8814" cy="71.4732" rx="2.5" ry="2.62469" transform="rotate(19.1717 20.8814 71.4732)" fill="#EB00FF"/>
<ellipse cx="70.5765" cy="42.3963" rx="2.5" ry="2.62469" transform="rotate(19.1717 70.5765 42.3963)" fill="#EB00FF"/>
<ellipse cx="56.1978" cy="83.7523" rx="2.5" ry="2.62469" transform="rotate(19.1717 56.1978 83.7523)" fill="#EB00FF"/>
<ellipse cx="105.893" cy="54.6754" rx="2.5" ry="2.62469" transform="rotate(19.1717 105.893 54.6754)" fill="#EB00FF"/>
<ellipse cx="91.514" cy="96.0311" rx="2.5" ry="2.62469" transform="rotate(19.1717 91.514 96.0311)" fill="#EB00FF"/>
</svg>
