<svg width="40" height="40" viewBox="0 0 40 40" fill="none" xmlns="http://www.w3.org/2000/svg">
<ellipse cx="20" cy="20.004" rx="20" ry="20.004" fill="white"/>
<path d="M25 9.02539H15C12.2386 9.02539 10 11.264 10 14.0254V24.0254C10 26.7868 12.2386 29.0254 15 29.0254H25C27.7614 29.0254 30 26.7868 30 24.0254V14.0254C30 11.264 27.7614 9.02539 25 9.02539Z" stroke="#383638" stroke-width="2" stroke-linecap="round" stroke-linejoin="round"/>
<path d="M24 18.3952C24.1234 19.2274 23.9812 20.0774 23.5937 20.8242C23.2062 21.571 22.5931 22.1766 21.8416 22.5549C21.0901 22.9331 20.2384 23.0648 19.4077 22.9311C18.5771 22.7975 17.8097 22.4053 17.2148 21.8104C16.6199 21.2154 16.2277 20.4481 16.094 19.6174C15.9604 18.7868 16.092 17.9351 16.4703 17.1836C16.8485 16.4321 17.4541 15.8189 18.2009 15.4314C18.9477 15.0439 19.7977 14.9018 20.63 15.0252C21.4789 15.1511 22.2648 15.5467 22.8716 16.1535C23.4785 16.7604 23.8741 17.5463 24 18.3952Z" stroke="#383638" stroke-width="2" stroke-linecap="round" stroke-linejoin="round"/>
<path d="M25.5 13.5254H25.51" stroke="#383638" stroke-width="2" stroke-linecap="round" stroke-linejoin="round"/>
</svg>
