<svg width="40" height="40" viewBox="0 0 40 40" fill="none" xmlns="http://www.w3.org/2000/svg">
<ellipse cx="20" cy="20.004" rx="20" ry="20.004" fill="white"/>
<path d="M31 10.0252C30.0424 10.7007 28.9821 11.2173 27.86 11.5552C27.2577 10.8627 26.4573 10.3719 25.567 10.1491C24.6767 9.92635 23.7395 9.98239 22.8821 10.3096C22.0247 10.6369 21.2884 11.2196 20.773 11.9789C20.2575 12.7382 19.9877 13.6375 20 14.5552V15.5552C18.2426 15.6008 16.5013 15.211 14.931 14.4206C13.3607 13.6303 12.0103 12.4638 11 11.0252C11 11.0252 7 20.0252 16 24.0252C13.9405 25.4232 11.4872 26.1241 9 26.0252C18 31.0252 29 26.0252 29 14.5252C28.9991 14.2466 28.9723 13.9688 28.92 13.6952C29.9406 12.6887 30.6608 11.4179 31 10.0252V10.0252Z" stroke="#383638" stroke-width="2" stroke-linecap="round" stroke-linejoin="round"/>
</svg>
